#N canvas 121 49 1162 795 10;
#X obj -738 269 pd_rect;
#X obj -429 93 pd_mix;
#X obj -526 269 pd_rect;
#X obj -429 165 pd_demux;
#X obj -105 271 pd_rect;
#X obj -160 -153 pd_blend;
#X obj -159 25 pd_blend;
#X obj -49 -151 pd_video;
#X obj -50 51 pd_video;
#X obj -49 -48 pd_video;
#N canvas 441 94 583 446 jpeg_sponsor 0;
#X obj 276 148 pix_image;
#X obj 265 79 openpanel;
#X obj 116 111 bng 15 250 50 0 empty empty OPEN_JPG 17 7 0 10 -262144
-1 -1;
#X msg 357 120 open \$1;
#X obj 243 25 gemhead;
#X obj 283 277 rectangle;
#X obj 241 187 pix_texture;
#X floatatom 122 135 5 0 0 0 W - -;
#X floatatom 121 155 5 0 0 0 H - -;
#X obj 149 269 translateXYZ;
#X obj 47 199 inlet;
#X obj 77 207 inlet;
#X obj 119 209 inlet;
#X obj 177 137 tgl 15 0 empty empty E 17 7 0 10 -262144 -1 -1 0 1;
#X obj 235 123 spigot;
#X text 246 222 set the alpha value;
#X connect 0 0 6 0;
#X connect 1 0 3 0;
#X connect 2 0 1 0;
#X connect 3 0 0 0;
#X connect 4 0 14 0;
#X connect 6 0 9 0;
#X connect 7 0 5 1;
#X connect 8 0 5 2;
#X connect 9 0 5 0;
#X connect 10 0 9 1;
#X connect 11 0 9 2;
#X connect 12 0 9 3;
#X connect 13 0 14 1;
#X connect 14 0 0 0;
#X coords 0 -1 1 1 110 80 2 100 100;
#X restore -428 -153 pd jpeg_sponsor;
#X obj -180 416 cnv 15 100 60 empty empty .gem_control 2 7 0 14 -195568
-66577 0;
#N canvas 87 25 485 271 gemwin 0;
#X obj 22 130 outlet;
#X obj 22 10 inlet;
#X obj 22 41 route create;
#X msg 22 70 set destroy;
#X msg 103 71 set create;
#X obj 270 118 inlet;
#X msg 375 201 border \$1;
#X obj 376 181 tgl 15 0 empty empty empty 0 -6 0 10 -262144 -1 -1 1
1;
#X msg 270 138 dimen 1024 800;
#X msg 270 180 dimen 640 480;
#X msg 271 38 offset 0 0;
#X msg 270 159 dimen 800 600;
#X msg 269 61 offset 1024 -50;
#X obj 376 126 loadbang;
#X obj 376 150 delay 100;
#X obj 375 51 gemhead;
#X obj 375 96 world_light;
#X obj 97 218 gemwin 100;
#X msg 102 113 destroy \, 0 \, lighting 0;
#X msg 270 81 offset 800 -50;
#X obj 375 73 rotate;
#X msg 270 201 dimen 400 300;
#X msg 3 164 create \, 1 \, lighting 0;
#X connect 1 0 2 0;
#X connect 2 0 3 0;
#X connect 2 0 22 0;
#X connect 2 1 4 0;
#X connect 2 1 18 0;
#X connect 3 0 0 0;
#X connect 4 0 0 0;
#X connect 5 0 8 0;
#X connect 6 0 17 0;
#X connect 7 0 6 0;
#X connect 8 0 17 0;
#X connect 9 0 17 0;
#X connect 10 0 17 0;
#X connect 11 0 17 0;
#X connect 12 0 17 0;
#X connect 13 0 14 0;
#X connect 13 0 21 0;
#X connect 14 0 7 0;
#X connect 15 0 20 0;
#X connect 18 0 17 0;
#X connect 19 0 17 0;
#X connect 20 0 16 0;
#X connect 21 0 17 0;
#X connect 22 0 17 0;
#X restore -164 454 pd gemwin;
#X msg -164 435 create;
#X obj -113 435 tgl 15 0 empty empty empty 0 -6 0 10 -1 -4034 -1 0
1;
#X obj -427 -61 pd_trig;
#N canvas 485 190 657 231 trans_effect 0;
#X obj 192 70 inlet;
#X obj 198 177 outlet;
#X obj 195 110 translateXYZ;
#X obj 199 140 rotateXYZ;
#X obj 320 55 pd_trig;
#X obj 319 154 pd_plus;
#X connect 0 0 2 0;
#X connect 2 0 3 0;
#X connect 3 0 1 0;
#X connect 4 0 2 3;
#X connect 5 0 3 3;
#X restore -316 224 pd trans_effect;
#X obj -316 270 pd_rect;
#X obj -545 -151 pd_blend;
#X obj -544 27 pd_blend;
#X obj -834 -149 pd_video;
#X obj -835 53 pd_video;
#X obj -834 -46 pd_video;
#X obj -738 414 pd_bandpass;
#X obj -738 590 s band1;
#X obj -588 587 s band2;
#X obj -437 586 s band3;
#X obj -588 414 pd_bandpass;
#X obj -437 414 pd_bandpass;
#X obj -289 414 cnv 15 100 120 empty empty Audio 20 12 0 14 -233017
-66577 0;
#X obj -272 452 adc~;
#X obj -276 502 s~ adc;
#X obj -272 478 spigot~;
#X obj -233 452 tgl 15 0 empty empty empty 17 7 0 10 -262144 -1 -1
0 1;
#X connect 1 0 3 0;
#X connect 3 0 0 0;
#X connect 3 1 2 0;
#X connect 3 2 16 0;
#X connect 3 3 4 0;
#X connect 5 0 6 0;
#X connect 6 0 1 1;
#X connect 7 0 5 0;
#X connect 8 0 6 1;
#X connect 9 0 5 1;
#X connect 12 0 13 0;
#X connect 13 0 12 0;
#X connect 14 0 12 1;
#X connect 15 0 10 2;
#X connect 16 0 17 0;
#X connect 18 0 19 0;
#X connect 19 0 1 0;
#X connect 20 0 18 0;
#X connect 21 0 19 1;
#X connect 22 0 18 1;
#X connect 23 0 24 0;
#X connect 27 0 25 0;
#X connect 28 0 26 0;
#X connect 30 0 32 0;
#X connect 32 1 31 0;
#X connect 33 0 32 1;
