#N canvas 345 241 997 520 10;
#X obj 3 296 pd_rect;
#X obj 5 0 pd_video;
#X obj 293 -1 pd_blend;
#X obj 312 178 pd_mix;
#X obj 401 1 pd_blend;
#X obj 642 387 pd_plus;
#X obj 641 297 pd_trig;
#X obj 218 297 pd_rect;
#X obj 305 248 pd_demux;
#X obj 446 248 pd_demux;
#X obj 430 298 pd_rect;
#X obj 506 -1 pd_blend;
#X obj 611 -2 pd_blend;
#X obj 4 95 pd_video;
#X obj 3 191 pd_video;
#X obj 718 1 pd_video;
#X obj 721 196 pd_video;
#X obj 719 99 pd_video;
#N canvas 441 94 583 446 jpeg_sponsor 0;
#X obj 276 148 pix_image;
#X obj 265 79 openpanel;
#X obj 116 111 bng 15 250 50 0 empty empty OPEN_JPG 17 7 0 10 -262144
-1 -1;
#X msg 357 120 open \$1;
#X obj 243 25 gemhead;
#X obj 283 277 rectangle;
#X obj 241 187 pix_texture;
#X floatatom 122 135 5 0 0 0 W - -;
#X floatatom 121 155 5 0 0 0 H - -;
#X obj 149 269 translateXYZ;
#X obj 47 199 inlet;
#X obj 77 207 inlet;
#X obj 119 209 inlet;
#X obj 177 137 tgl 15 0 empty empty E 17 7 0 10 -262144 -1 -1 0 1;
#X obj 235 123 spigot;
#X text 246 222 set the alpha value;
#X connect 0 0 6 0;
#X connect 1 0 3 0;
#X connect 2 0 1 0;
#X connect 3 0 0 0;
#X connect 4 0 14 0;
#X connect 6 0 9 0;
#X connect 7 0 5 1;
#X connect 8 0 5 2;
#X connect 9 0 5 0;
#X connect 10 0 9 1;
#X connect 11 0 9 2;
#X connect 12 0 9 3;
#X connect 13 0 14 1;
#X connect 14 0 0 0;
#X coords 0 -1 1 1 110 80 2 100 100;
#X restore 162 427 pd jpeg_sponsor;
#X obj 568 211 pd_multiplexer;
#X obj 4 423 cnv 15 100 60 empty empty .gem_control 2 7 0 14 -195568
-66577 0;
#N canvas 87 25 485 271 gemwin 1;
#X obj 22 130 outlet;
#X obj 22 10 inlet;
#X obj 22 41 route create;
#X msg 22 70 set destroy;
#X msg 103 71 set create;
#X obj 270 118 inlet;
#X msg 375 201 border \$1;
#X obj 376 181 tgl 15 0 empty empty empty 0 -6 0 10 -262144 -1 -1 1
1;
#X msg 270 138 dimen 1024 800;
#X msg 270 180 dimen 640 480;
#X msg 271 38 offset 0 0;
#X msg 270 159 dimen 800 600;
#X msg 269 61 offset 1024 -50;
#X obj 376 126 loadbang;
#X obj 376 150 delay 100;
#X obj 375 51 gemhead;
#X obj 375 96 world_light;
#X obj 97 218 gemwin 100;
#X msg 102 113 destroy \, 0 \, lighting 0;
#X msg 270 81 offset 800 -50;
#X obj 375 73 rotate;
#X msg 270 201 dimen 400 300;
#X msg 3 164 create \, 1 \, lighting 0;
#X connect 1 0 2 0;
#X connect 2 0 3 0;
#X connect 2 0 22 0;
#X connect 2 1 4 0;
#X connect 2 1 18 0;
#X connect 3 0 0 0;
#X connect 4 0 0 0;
#X connect 5 0 8 0;
#X connect 6 0 17 0;
#X connect 7 0 6 0;
#X connect 8 0 17 0;
#X connect 9 0 17 0;
#X connect 10 0 17 0;
#X connect 11 0 17 0;
#X connect 12 0 17 0;
#X connect 13 0 14 0;
#X connect 13 0 21 0;
#X connect 14 0 7 0;
#X connect 15 0 20 0;
#X connect 18 0 17 0;
#X connect 19 0 17 0;
#X connect 20 0 16 0;
#X connect 21 0 17 0;
#X connect 22 0 17 0;
#X restore 20 461 pd gemwin;
#X msg 20 442 create;
#X obj 71 442 tgl 15 0 empty empty empty 0 -6 0 10 -1 -4034 -1 0 1
;
#X obj 312 422 pd_trig;
#N canvas 237 65 657 231 trans_effect 1;
#X obj 192 70 inlet;
#X obj 198 177 outlet;
#X obj 195 110 translateXYZ;
#X obj 199 140 rotateXYZ;
#X obj 320 55 pd_trig;
#X obj 319 154 pd_plus;
#X connect 0 0 2 0;
#X connect 2 0 3 0;
#X connect 3 0 1 0;
#X connect 4 0 2 3;
#X connect 5 0 3 3;
#X restore 601 256 pd trans_effect;
#X obj 588 462 pd_rect;
#X floatatom 221 521 5 0 0 0 - - -;
#X obj 162 514 r audio;
#X floatatom 263 528 5 0 0 0 - - -;
#X obj 158 539 -;
#X obj 210 551 spigot;
#X obj 262 552 tgl 15 0 empty empty empty 17 7 0 10 -262144 -1 -1 0
1;
#X msg 308 531 0;
#X floatatom 100 546 5 0 0 0 - - -;
#N canvas 137 100 320 476 audio 1;
#X obj 186 90 hip~ 5;
#X obj 194 141 int;
#X obj 194 115 env~ 8192;
#X obj 186 37 adc~ 1;
#X obj 196 190 r~ tone-mon;
#X obj 205 325 line~;
#X obj 186 215 *~;
#X obj 205 298 pack 0 50;
#X obj 205 272 r tone-ch1;
#X obj 196 245 r~ tone-osc;
#X obj 196 350 *~;
#X obj 186 405 dac~ 1;
#X obj 186 380 +~;
#X obj 194 63 r tone-hip;
#X obj 25 282 s~ tone-mon;
#X obj 25 256 line~;
#X obj 25 228 pack 0 50;
#X obj 25 202 r tone-monitor;
#X obj 28 119 * 5;
#X obj 28 144 s tone-hip;
#X obj 28 93 r tone-hipass;
#N canvas 144 229 223 149 glue+loadbang 0;
#X obj 8 14 r tone-all;
#X obj 118 12 r tone-none;
#X msg 8 42 \; tone-ch1 1 \; tone-ch2 1 \; tone-ch3 1 \; tone-ch4 1
;
#X msg 118 42 \; tone-ch1 0 \; tone-ch2 0 \; tone-ch3 0 \; tone-ch4
0;
#X connect 0 0 2 0;
#X connect 1 0 3 0;
#X restore 22 311 pd glue+loadbang;
#X msg 23 390 \; pd dsp 1;
#X msg 85 390 \; pd dsp 0;
#X obj 23 360 route dsp;
#X obj 23 339 tgl 15 0 empty empty empty 0 -6 0 10 -262144 -1 -1 0
1;
#X obj 10 8 cnv 15 160 20 empty empty audio_control 8 8 0 12 -1 -262144
0;
#X obj 127 193 nbx 3 14 0 100 0 0 signalaudio01 audio01 audio 0 -6
0 9 -1 -4034 -1 0 10;
#X obj 127 210 spigot;
#X obj 127 229 s audio;
#X obj 127 162 inlet;
#X floatatom 240 167 3 0 0 0 - - audio01;
#N canvas 487 35 512 603 tone-generator 0;
#X obj 22 134 osc~;
#X obj 22 66 mtof;
#X floatatom 22 43 0 0 0 0 - - -;
#X floatatom 22 88 0 0 0 0 - - -;
#X obj 22 110 sig~;
#X obj 22 18 r tone-pitch;
#X obj 119 60 noise~;
#X obj 65 196 +~;
#X obj 282 87 - 1;
#X obj 282 119 * -1;
#X obj 191 175 line~;
#X obj 281 176 line~;
#X obj 22 158 *~;
#X obj 119 157 *~;
#X msg 191 146 \$1 20;
#X msg 281 147 \$1 20;
#X floatatom 239 54 0 0 0 0 - - -;
#X obj 64 451 *~;
#X obj 86 424 line~;
#X obj 86 397 pack 0 50;
#X floatatom 86 345 0 0 0 0 - - -;
#X obj 86 370 dbtorms;
#X obj 64 477 s~ tone-osc;
#X obj 86 262 r tone-radio;
#X obj 86 290 sel 0 1 2;
#X msg 155 313 0;
#X msg 86 315 80;
#X msg 119 315 60;
#X obj 239 31 r tone-type;
#X connect 0 0 12 0;
#X connect 1 0 3 0;
#X connect 2 0 1 0;
#X connect 3 0 4 0;
#X connect 4 0 0 0;
#X connect 5 0 2 0;
#X connect 6 0 13 0;
#X connect 7 0 17 0;
#X connect 8 0 9 0;
#X connect 9 0 15 0;
#X connect 10 0 12 1;
#X connect 11 0 13 1;
#X connect 12 0 7 0;
#X connect 13 0 7 1;
#X connect 14 0 10 0;
#X connect 15 0 11 0;
#X connect 16 0 8 0;
#X connect 16 0 14 0;
#X connect 17 0 22 0;
#X connect 18 0 17 1;
#X connect 19 0 18 0;
#X connect 20 0 21 0;
#X connect 21 0 19 0;
#X connect 23 0 24 0;
#X connect 24 0 26 0;
#X connect 24 1 27 0;
#X connect 24 2 25 0;
#X connect 25 0 20 0;
#X connect 26 0 20 0;
#X connect 27 0 20 0;
#X connect 28 0 16 0;
#X restore 24 47 pd tone-generator;
#X connect 0 0 6 0;
#X connect 0 0 2 0;
#X connect 1 0 31 0;
#X connect 2 0 1 0;
#X connect 3 0 0 0;
#X connect 4 0 6 1;
#X connect 5 0 10 1;
#X connect 6 0 12 0;
#X connect 7 0 5 0;
#X connect 8 0 7 0;
#X connect 9 0 10 0;
#X connect 10 0 12 1;
#X connect 12 0 11 0;
#X connect 13 0 0 1;
#X connect 15 0 14 0;
#X connect 16 0 15 0;
#X connect 17 0 16 0;
#X connect 18 0 19 0;
#X connect 20 0 18 0;
#X connect 24 0 22 0;
#X connect 24 1 23 0;
#X connect 25 0 24 0;
#X connect 27 0 28 0;
#X connect 28 0 29 0;
#X connect 30 0 28 1;
#X restore 444 533 pd audio;
#X obj 444 517 tgl 15 0 empty audiospigot empty 0 -6 0 10 -1 -4034
-1 0 1;
#X obj 351 515 r audio;
#X obj 392 535 nbx 3 14 0.1 100 0 0 empty headspeed empty 0 -6 0 9
-1 -4034 -1 0.1 10;
#X obj 351 532 spigot;
#X obj 397 517 tgl 15 0 empty empty empty 0 -6 0 10 -1 -4034 -1 0 1
;
#X floatatom 351 549 5 0 0 0 - - -;
#X connect 1 0 2 0;
#X connect 2 0 4 0;
#X connect 3 0 19 0;
#X connect 4 0 3 0;
#X connect 8 0 0 0;
#X connect 8 1 7 0;
#X connect 8 2 25 0;
#X connect 8 3 9 0;
#X connect 9 0 10 0;
#X connect 11 0 12 0;
#X connect 12 0 3 1;
#X connect 13 0 2 1;
#X connect 14 0 4 1;
#X connect 15 0 11 0;
#X connect 16 0 12 1;
#X connect 17 0 11 1;
#X connect 19 0 8 0;
#X connect 21 0 22 0;
#X connect 22 0 21 0;
#X connect 23 0 21 1;
#X connect 24 0 18 2;
#X connect 25 0 26 0;
#X connect 27 0 18 2;
#X connect 28 0 30 0;
#X connect 29 0 30 1;
#X connect 30 0 31 0;
#X connect 30 0 34 0;
#X connect 31 0 18 2;
#X connect 32 0 31 1;
#X connect 33 0 18 2;
#X connect 36 0 35 0;
#X connect 37 0 39 0;
#X connect 39 0 41 0;
#X connect 40 0 39 1;
