#N canvas 715 22 1116 824 10;
#X obj -738 278 pd_rect;
#X obj -429 93 pd_mix;
#X obj -526 278 pd_rect;
#X obj -428 208 pd_demux;
#X obj -105 280 pd_rect;
#X obj -160 -153 pd_blend;
#X obj -159 25 pd_blend;
#N canvas 441 94 583 446 jpeg_sponsor 0;
#X obj 276 148 pix_image;
#X obj 265 79 openpanel;
#X obj 116 111 bng 15 250 50 0 empty empty OPEN_JPG 17 7 0 10 -262144
-1 -1;
#X msg 357 120 open \$1;
#X obj 243 25 gemhead;
#X obj 283 277 rectangle;
#X obj 241 187 pix_texture;
#X floatatom 122 135 5 0 0 0 W - -;
#X floatatom 121 155 5 0 0 0 H - -;
#X obj 149 269 translateXYZ;
#X obj 47 199 inlet;
#X obj 77 207 inlet;
#X obj 119 209 inlet;
#X obj 177 137 tgl 15 0 empty empty E 17 7 0 10 -262144 -1 -1 0 1;
#X obj 235 123 spigot;
#X text 246 222 set the alpha value;
#X connect 0 0 6 0;
#X connect 1 0 3 0;
#X connect 2 0 1 0;
#X connect 3 0 0 0;
#X connect 4 0 14 0;
#X connect 6 0 9 0;
#X connect 7 0 5 1;
#X connect 8 0 5 2;
#X connect 9 0 5 0;
#X connect 10 0 9 1;
#X connect 11 0 9 2;
#X connect 12 0 9 3;
#X connect 13 0 14 1;
#X connect 14 0 0 0;
#X coords 0 -1 1 1 110 80 2 100 100;
#X restore -428 -82 pd jpeg_sponsor;
#X obj -239 427 cnv 15 100 60 empty empty .gem_control 2 7 0 14 -195568
-66577 0;
#N canvas 26 47 485 271 gemwin 0;
#X obj 22 130 outlet;
#X obj 22 10 inlet;
#X obj 22 41 route create;
#X msg 22 70 set destroy;
#X msg 103 71 set create;
#X obj 270 118 inlet;
#X msg 375 201 border \$1;
#X obj 376 181 tgl 15 0 empty empty empty 0 -6 0 10 -262144 -1 -1 1
1;
#X msg 270 138 dimen 1024 800;
#X msg 270 180 dimen 640 480;
#X msg 271 38 offset 0 0;
#X msg 270 159 dimen 800 600;
#X obj 376 126 loadbang;
#X obj 376 150 delay 100;
#X obj 375 51 gemhead;
#X obj 375 96 world_light;
#X obj 97 218 gemwin 100;
#X msg 102 113 destroy \, 0 \, lighting 0;
#X msg 270 81 offset 800 -50;
#X obj 375 73 rotate;
#X msg 270 201 dimen 400 300;
#X msg 3 164 create \, 1 \, lighting 0;
#X msg 269 61 offset 1440 -50;
#X connect 1 0 2 0;
#X connect 2 0 3 0;
#X connect 2 0 21 0;
#X connect 2 1 4 0;
#X connect 2 1 17 0;
#X connect 3 0 0 0;
#X connect 4 0 0 0;
#X connect 5 0 8 0;
#X connect 6 0 16 0;
#X connect 7 0 6 0;
#X connect 8 0 16 0;
#X connect 9 0 16 0;
#X connect 10 0 16 0;
#X connect 11 0 16 0;
#X connect 12 0 13 0;
#X connect 12 0 20 0;
#X connect 13 0 7 0;
#X connect 14 0 19 0;
#X connect 17 0 16 0;
#X connect 18 0 16 0;
#X connect 19 0 15 0;
#X connect 20 0 16 0;
#X connect 21 0 16 0;
#X connect 22 0 16 0;
#X restore -223 465 pd gemwin;
#X msg -223 446 destroy;
#X obj -172 446 tgl 15 0 empty empty empty 0 -6 0 10 -1 -4034 -1 0
1;
#X obj -427 7 pd_trig;
#N canvas 485 190 657 231 trans_effect 1;
#X obj 192 70 inlet;
#X obj 198 177 outlet;
#X obj 195 110 translateXYZ;
#X obj 199 140 rotateXYZ;
#X obj 320 55 pd_trig;
#X obj 319 154 pd_plus;
#X connect 0 0 2 0;
#X connect 2 0 3 0;
#X connect 3 0 1 0;
#X connect 4 0 2 3;
#X connect 5 0 3 3;
#X restore -322 251 pd trans_effect;
#X obj -316 279 pd_rect;
#X obj -545 -148 pd_blend;
#X obj -545 32 pd_blend;
#X obj -834 -151 pd_video;
#X obj -727 560 s band1;
#X obj -348 425 cnv 15 100 120 empty empty Audio 20 12 0 14 -233017
-66577 0;
#X obj -331 463 adc~;
#X obj -335 513 s~ adc;
#X obj -331 489 spigot~;
#X obj -292 463 tgl 15 0 empty empty empty 17 7 0 10 -262144 -1 -1
0 1;
#N canvas 315 429 450 300 effects_mix 1;
#N canvas 793 320 479 459 effex 1;
#X obj 101 -18 inlet;
#X obj 124 225 outlet;
#X obj 124 64 pd_demux;
#X obj 166 177 pix_motionblur;
#X floatatom 250 115 5 0 0 0 - - -;
#X obj 326 113 / 100;
#X obj 220 16 pack 0 0 0;
#X obj 236 -44 hsl 128 15 0 1 0 0 empty empty empty -2 -8 0 10 -262144
-1 -1 7700 1;
#X obj 236 -23 hsl 128 15 0 1 0 0 empty empty empty -2 -8 0 10 -262144
-1 -1 7100 1;
#X obj 238 -2 hsl 128 15 0 1 0 0 empty empty empty -2 -8 0 10 -262144
-1 -1 9000 1;
#X obj 210 -41 bng 15 250 50 0 empty empty empty 17 7 0 10 -262144
-1 -1;
#X obj 375 -39 t b a;
#X obj 378 -6 t b a;
#X obj 144 29 color;
#X obj 2 -53 cnv 15 100 30 empty empty LAYER_1 20 12 0 14 -233017 -66577
0;
#X obj 342 295 pix_rotate;
#X obj 355 245 pix_flip;
#X msg 418 165 none;
#X msg 418 185 horizontal;
#X msg 418 205 vertical;
#X msg 418 225 both;
#X obj 375 58 r band1;
#X floatatom 375 110 5 0 0 0 - - -;
#X obj 375 85 abs;
#X obj 326 158 moses 50;
#X obj 337 194 t b;
#X obj 373 190 t b;
#X floatatom 428 114 5 0 0 0 - - -;
#X obj 256 216 delay;
#X floatatom 283 192 5 0 0 0 - - -;
#X obj 253 322 delay;
#X floatatom 280 298 5 0 0 0 - - -;
#X obj -3 189 pix_flip;
#X msg 60 109 none;
#X msg 60 129 horizontal;
#X msg 60 149 vertical;
#X msg 60 169 both;
#X connect 0 0 2 0;
#X connect 2 0 32 0;
#X connect 2 1 3 0;
#X connect 2 2 16 0;
#X connect 3 0 1 0;
#X connect 4 0 5 0;
#X connect 5 0 3 1;
#X connect 6 0 13 1;
#X connect 7 0 6 0;
#X connect 8 0 11 0;
#X connect 9 0 12 0;
#X connect 10 0 6 0;
#X connect 11 0 6 0;
#X connect 11 1 6 1;
#X connect 12 0 6 0;
#X connect 12 1 6 2;
#X connect 16 0 1 0;
#X connect 17 0 16 0;
#X connect 18 0 16 0;
#X connect 19 0 16 0;
#X connect 20 0 16 0;
#X connect 21 0 23 0;
#X connect 22 0 24 0;
#X connect 23 0 22 0;
#X connect 24 0 28 0;
#X connect 24 1 30 0;
#X connect 25 0 19 0;
#X connect 26 0 18 0;
#X connect 27 0 24 1;
#X connect 28 0 25 0;
#X connect 29 0 28 1;
#X connect 30 0 26 0;
#X connect 31 0 30 1;
#X connect 32 0 1 0;
#X connect 33 0 32 0;
#X connect 34 0 32 0;
#X connect 35 0 32 0;
#X connect 36 0 32 0;
#X restore -327 56 pd effex layer 1;
#X obj -327 32 r effex_layer_1_in;
#X obj -196 80 s effex_layer_2_out;
#X obj -196 32 r effex_layer_2_in;
#N canvas 25 521 450 300 effex 0;
#X obj 117 6 inlet;
#X obj 144 245 outlet;
#X obj 144 85 pd_demux;
#X obj 186 197 pix_motionblur;
#X floatatom 266 166 5 0 0 0 - - -;
#X obj 307 138 / 100;
#X obj 230 26 pack 0 0 0;
#X obj 245 -32 hsl 128 15 0 1 0 0 empty empty empty -2 -8 0 10 -262144
-1 -1 0 1;
#X obj 245 -12 hsl 128 15 0 1 0 0 empty empty empty -2 -8 0 10 -262144
-1 -1 0 1;
#X obj 244 8 hsl 128 15 0 1 0 0 empty empty empty -2 -8 0 10 -262144
-1 -1 0 1;
#X obj 220 -31 bng 15 250 50 0 empty empty empty 17 7 0 10 -262144
-1 -1;
#X obj 385 -29 t b a;
#X obj 388 4 t b a;
#X obj 131 48 color;
#X obj 5 -31 cnv 15 100 30 empty empty LAYER_2 20 12 0 14 -233017 -66577
0;
#X connect 0 0 13 0;
#X connect 2 0 1 0;
#X connect 2 1 3 0;
#X connect 3 0 1 0;
#X connect 4 0 5 0;
#X connect 5 0 3 1;
#X connect 6 0 13 1;
#X connect 7 0 6 0;
#X connect 8 0 11 0;
#X connect 9 0 12 0;
#X connect 10 0 6 0;
#X connect 11 0 6 0;
#X connect 11 1 6 1;
#X connect 12 0 6 0;
#X connect 12 1 6 2;
#X connect 13 0 2 0;
#X restore -196 57 pd effex layer 2;
#X obj -327 80 s effex_layer_1_out;
#X obj -66 31 r effex_layer_3_in;
#N canvas 406 70 450 300 effex 0;
#X obj 154 65 inlet;
#X obj 154 255 outlet;
#X obj 154 94 pd_demux;
#X obj 196 207 pix_motionblur;
#X floatatom 273 158 5 0 0 0 - - -;
#X obj 273 179 / 100;
#X obj 22 -13 cnv 15 100 30 empty empty LAYER_3 20 12 0 14 -233017
-66577 0;
#X connect 0 0 2 0;
#X connect 2 0 1 0;
#X connect 2 1 3 0;
#X connect 3 0 1 0;
#X connect 4 0 5 0;
#X connect 5 0 3 1;
#X restore -66 55 pd effex layer 3;
#X obj -66 79 s effex_layer_3_out;
#X obj -324 131 r effex_layer_4_in;
#N canvas 0 22 450 300 effex 0;
#X obj 124 58 inlet;
#X obj 124 116 outlet;
#X restore -324 156 pd effex layer 4;
#X obj -324 180 s effex_layer_4_out;
#X obj -193 132 r effex_layer_5_in;
#N canvas 0 22 450 300 effex 0;
#X obj 124 58 inlet;
#X obj 124 116 outlet;
#X restore -193 156 pd effex layer 5;
#X obj -193 180 s effex_layer_5_out;
#X obj -63 131 r effex_layer_6_in;
#N canvas 0 22 450 300 effex 0;
#X obj 124 58 inlet;
#X obj 124 116 outlet;
#X restore -63 155 pd effex layer 6;
#X obj -63 179 s effex_layer_6_out;
#N canvas 950 104 490 625 effex 1;
#X obj 137 -16 inlet;
#X obj 171 559 outlet;
#X obj 129 129 pd_demux;
#X obj 157 254 pix_motionblur;
#X floatatom 180 205 5 0 0 0 - - -;
#X obj 182 232 / 100;
#X obj 277 327 pix_gain;
#X floatatom 274 297 5 0 0 0 - - -;
#X obj 265 413 pix_motionblur;
#X floatatom 290 360 5 0 0 0 - - -;
#X obj 290 391 / 100;
#X obj 313 153 r band1;
#X obj 344 326 r band2;
#X obj 382 480 pix_gain;
#X floatatom 399 412 5 0 0 0 - - -;
#X obj 401 439 / 100;
#X obj 129 92 color;
#X obj 185 105 pack 0 0 0;
#X obj 163 8 hsl 128 15 0 1 0 0 empty empty empty -2 -8 0 10 -262144
-1 -1 12700 1;
#X obj 164 28 hsl 128 15 0 1 0 0 empty empty empty -2 -8 0 10 -262144
-1 -1 12700 1;
#X obj 158 47 hsl 128 15 0 1 0 0 empty empty empty -2 -8 0 10 -262144
-1 -1 12700 1;
#X obj 138 9 bng 15 250 50 0 empty empty empty 17 7 0 10 -262144 -1
-1;
#X obj 168 351 pix_gain;
#X floatatom 185 283 5 0 0 0 - - -;
#X obj 187 310 / 100;
#X obj 303 11 t b a;
#X obj 305 47 t b a;
#X obj -14 -16 cnv 15 100 30 empty empty GLOBAL_EFFECTS 20 12 0 14
-233017 -66577 0;
#X obj 343 243 *;
#X floatatom 387 202 5 0 0 0 - - -;
#X obj 326 281 + 1;
#X connect 0 0 16 0;
#X connect 2 0 1 0;
#X connect 2 1 3 0;
#X connect 2 2 6 0;
#X connect 2 3 13 0;
#X connect 3 0 22 0;
#X connect 4 0 5 0;
#X connect 5 0 3 1;
#X connect 6 0 8 0;
#X connect 7 0 6 1;
#X connect 8 0 1 0;
#X connect 9 0 10 0;
#X connect 10 0 8 1;
#X connect 11 0 28 0;
#X connect 12 0 9 0;
#X connect 13 0 1 0;
#X connect 14 0 15 0;
#X connect 15 0 13 1;
#X connect 16 0 2 0;
#X connect 17 0 16 1;
#X connect 18 0 17 0;
#X connect 19 0 25 0;
#X connect 20 0 26 0;
#X connect 21 0 17 0;
#X connect 22 0 1 0;
#X connect 23 0 24 0;
#X connect 24 0 22 1;
#X connect 25 0 17 0;
#X connect 25 1 17 1;
#X connect 26 0 17 0;
#X connect 26 1 17 2;
#X connect 28 0 30 0;
#X connect 29 0 28 1;
#X connect 30 0 7 0;
#X restore -321 247 pd effex layer 4;
#X obj -321 222 r effex_global_in;
#X obj -321 273 s effex_global_out;
#X connect 0 0 5 0;
#X connect 1 0 0 0;
#X connect 3 0 4 0;
#X connect 4 0 2 0;
#X connect 6 0 7 0;
#X connect 7 0 8 0;
#X connect 9 0 10 0;
#X connect 10 0 11 0;
#X connect 12 0 13 0;
#X connect 13 0 14 0;
#X connect 15 0 16 0;
#X connect 16 0 17 0;
#X connect 18 0 20 0;
#X connect 19 0 18 0;
#X restore -837 234 pd effects_mix;
#X obj -432 -151 r effex_layer_1_out;
#X obj -838 209 s effex_layer_3_in;
#X obj -431 -129 r effex_layer_2_out;
#X obj -430 -108 r effex_layer_3_out;
#X obj -834 -45 s effex_layer_1_in;
#X obj -835 88 s effex_layer_2_in;
#X obj -429 162 s effex_global_in;
#X obj -428 184 r effex_global_out;
#N canvas 764 189 653 480 (subpatch) 1;
#X obj 61 117 rfft~;
#X obj 47 192 tabwrite~ array1;
#X obj 40 94 *~;
#X obj 258 117 block~ 64;
#X obj 7 50 inlet~;
#X obj 58 47 inlet;
#X obj 119 50 inlet;
#N canvas 467 483 450 300 (subpatch) 1;
#X array array1 64 float 3;
#A 0 12.3328 21.3298 11.5797 0 13.5893 0 0 0 0 2.68497 4.22685 0 0
0 0 1.92213 2.87278 2.1949 1.59784 0.795363 1.73887 1.91178 1.70549
1.89946 1.81454 1.97251 2.05181 2.12263 2.1911 2.25461 2.30915 2.3669
2.42274 0 0 0 0 0 0 0 0 0 0 0 0 0 0 0 0 0 0 0 0 0 0 0 0 0 0 0 0 0 0
0;
#X coords 0 0 1 1 200 140 0;
#X restore 258 141 graph;
#X obj 126 98 metro 29;
#X obj 40 148 sqrt~;
#X floatatom 198 44 5 0 0 0 - - -;
#X connect 0 0 9 0;
#X connect 0 1 9 0;
#X connect 2 0 0 0;
#X connect 4 0 2 0;
#X connect 5 0 2 1;
#X connect 6 0 8 0;
#X connect 8 0 1 0;
#X connect 9 0 1 0;
#X connect 10 0 8 1;
#X restore -227 589 pd;
#X obj -228 507 r~ adc;
#X floatatom -220 535 5 0 0 0 - - -;
#X obj -212 560 tgl 15 0 empty empty empty 17 7 0 10 -262144 -1 -1
0 1;
#X obj -789 534 tabread array1;
#X obj -785 611 hsl 128 15 0 127 0 0 empty empty empty -2 -8 0 10 -262144
-1 -1 0 1;
#X floatatom -789 506 5 0 0 0 - - -;
#X obj -789 475 metro;
#X obj -789 452 tgl 15 0 empty empty empty 17 7 0 10 -262144 -1 -1
0 1;
#X floatatom -762 452 5 0 0 0 - - -;
#X obj -788 587 spigot;
#X obj -744 588 tgl 15 0 empty empty empty 17 7 0 10 -262144 -1 -1
0 1;
#X floatatom -788 634 5 0 0 0 - - -;
#X floatatom -594 417 5 0 0 0 - - -;
#X obj -789 561 *;
#X floatatom -750 507 5 0 0 0 - - -;
#X obj -761 561 / 64;
#X floatatom -714 507 5 0 0 0 - - -;
#X obj -648 534 tabread array1;
#X obj -644 611 hsl 128 15 0 127 0 0 empty empty empty -2 -8 0 10 -262144
-1 -1 0 1;
#X floatatom -648 506 5 0 0 0 - - -;
#X obj -648 475 metro;
#X obj -648 452 tgl 15 0 empty empty empty 17 7 0 10 -262144 -1 -1
0 1;
#X floatatom -621 452 5 0 0 0 - - -;
#X obj -647 587 spigot;
#X obj -603 588 tgl 15 0 empty empty empty 17 7 0 10 -262144 -1 -1
0 1;
#X floatatom -647 634 5 0 0 0 - - -;
#X obj -648 561 *;
#X floatatom -609 507 5 0 0 0 - - -;
#X obj -620 561 / 64;
#X floatatom -573 507 5 0 0 0 - - -;
#X obj -587 562 s band2;
#X obj -508 534 tabread array1;
#X obj -504 611 hsl 128 15 0 127 0 0 empty empty empty -2 -8 0 10 -262144
-1 -1 0 1;
#X floatatom -508 506 5 0 0 0 - - -;
#X obj -508 475 metro;
#X obj -508 452 tgl 15 0 empty empty empty 17 7 0 10 -262144 -1 -1
0 1;
#X floatatom -481 452 5 0 0 0 - - -;
#X obj -507 587 spigot;
#X obj -463 588 tgl 15 0 empty empty empty 17 7 0 10 -262144 -1 -1
0 1;
#X floatatom -507 634 5 0 0 0 - - -;
#X obj -508 561 *;
#X floatatom -469 507 5 0 0 0 - - -;
#X obj -480 561 / 64;
#X floatatom -433 507 5 0 0 0 - - -;
#X obj -447 562 s band3;
#X msg -433 481 1;
#X obj -433 453 loadbang;
#X msg -579 480 1;
#X obj -579 452 loadbang;
#X msg -721 480 1;
#X obj -721 452 loadbang;
#X obj -713 -53 r band1;
#X obj -49 -151 pd_video;
#X obj -50 51 pd_video;
#X obj -49 -48 pd_video;
#X obj -838 112 pd_video;
#X obj -836 -16 pd_video;
#X obj -347 594 pipe;
#X floatatom -749 633 5 0 0 0 - - -;
#X obj -664 -53 spigot;
#X obj -620 -52 tgl 15 0 empty empty empty 17 7 0 10 -262144 -1 -1
0 1;
#X obj -704 229 pix_video;
#X obj -702 194 gemhead;
#X msg -606 217 dimen 640 480;
#X floatatom -499 219 5 0 0 0 - - -;
#X floatatom -499 219 5 0 0 0 - - -;
#X msg -208 189 dialog;
#X obj -670 86 pix_delay 400;
#X obj -817 287 metro 29;
#X obj -819 327 f;
#X obj -795 363 mod 400;
#X obj -828 265 tgl 15 0 empty empty empty 17 7 0 10 -262144 -1 -1
1 1;
#X msg -820 402;
#X floatatom -824 398 5 0 0 0 - - -;
#X obj -758 349;
#X obj -785 326 - 1;
#X connect 1 0 31 0;
#X connect 3 0 0 0;
#X connect 3 1 2 0;
#X connect 3 2 13 0;
#X connect 3 3 4 0;
#X connect 5 0 6 0;
#X connect 6 0 1 1;
#X connect 9 0 10 0;
#X connect 10 0 9 0;
#X connect 11 0 9 1;
#X connect 12 0 7 2;
#X connect 13 0 14 0;
#X connect 15 0 16 0;
#X connect 16 0 1 0;
#X connect 20 0 22 0;
#X connect 22 1 21 0;
#X connect 23 0 22 1;
#X connect 25 0 15 0;
#X connect 27 0 15 1;
#X connect 28 0 16 1;
#X connect 32 0 3 0;
#X connect 34 0 33 0;
#X connect 35 0 33 1;
#X connect 36 0 33 2;
#X connect 37 0 47 0;
#X connect 39 0 37 0;
#X connect 40 0 39 0;
#X connect 41 0 40 0;
#X connect 42 0 40 1;
#X connect 43 0 38 0;
#X connect 43 0 45 0;
#X connect 44 0 43 1;
#X connect 46 0 42 0;
#X connect 46 0 56 0;
#X connect 46 0 70 0;
#X connect 47 0 49 0;
#X connect 48 0 47 1;
#X connect 49 0 43 0;
#X connect 49 0 18 0;
#X connect 50 0 49 1;
#X connect 51 0 60 0;
#X connect 53 0 51 0;
#X connect 54 0 53 0;
#X connect 55 0 54 0;
#X connect 56 0 54 1;
#X connect 57 0 52 0;
#X connect 57 0 59 0;
#X connect 58 0 57 1;
#X connect 60 0 57 0;
#X connect 60 0 62 0;
#X connect 61 0 60 1;
#X connect 62 0 64 0;
#X connect 63 0 62 1;
#X connect 65 0 74 0;
#X connect 67 0 65 0;
#X connect 68 0 67 0;
#X connect 69 0 68 0;
#X connect 70 0 68 1;
#X connect 71 0 66 0;
#X connect 71 0 73 0;
#X connect 72 0 71 1;
#X connect 74 0 71 0;
#X connect 74 0 76 0;
#X connect 75 0 74 1;
#X connect 76 0 78 0;
#X connect 77 0 76 1;
#X connect 79 0 77 0;
#X connect 79 0 75 0;
#X connect 80 0 79 0;
#X connect 81 0 61 0;
#X connect 81 0 63 0;
#X connect 82 0 81 0;
#X connect 83 0 48 0;
#X connect 83 0 50 0;
#X connect 84 0 83 0;
#X connect 85 0 93 0;
#X connect 86 0 5 0;
#X connect 87 0 6 1;
#X connect 88 0 5 1;
#X connect 89 0 26 0;
#X connect 93 0 17 0;
#X connect 94 0 93 1;
#X connect 95 0 29 0;
#X connect 95 0 101 0;
#X connect 96 0 95 0;
#X connect 97 0 95 0;
#X connect 100 0 95 0;
#X connect 101 0 30 0;
#X connect 102 0 103 0;
#X connect 103 0 109 0;
#X connect 104 0 101 1;
#X connect 104 0 107 0;
#X connect 105 0 102 0;
#X connect 109 0 103 1;
#X connect 109 0 104 0;
