#N canvas 688 57 561 684 10;
#X obj 59 237 pix_delay 400;
#X obj 371 232 i;
#X obj 410 234 + 1;
#X obj 373 257 mod 400;
#X obj 233 -3 tgl 15 0 empty empty empty 17 7 0 10 -262144 -1 -1 1
1;
#X obj 191 332 gemwin;
#X msg 191 249 create;
#X msg 203 272 dimen 640 480;
#X obj 216 302 tgl 15 0 empty empty empty 17 7 0 10 -262144 -1 -1 1
1;
#X obj 61 482 pix_texture;
#X obj 62 559 rectangle 4 3;
#X floatatom 267 100 5 0 0 0 - - -;
#X floatatom 134 180 5 0 0 0 - - -;
#X obj 57 122 pix_video;
#X obj 57 94 gemhead;
#X obj 233 48 random 400;
#X obj 137 153 line;
#X obj 233 24 metro 200;
#X obj 59 266 pd_blend;
#X floatatom 278 -6 5 0 0 0 - - -;
#X floatatom 317 -6 5 0 0 0 - - -;
#X obj 137 86 i;
#X obj 137 -8 tgl 15 0 empty empty empty 17 7 0 10 -262144 -1 -1 1
1;
#X obj 137 17 metro 200;
#X floatatom 188 -8 5 0 0 0 - - -;
#X obj 137 117 pack i 1000;
#X floatatom 267 76 5 0 0 0 - - -;
#X obj 59 208 multiplex;
#X obj 109 143 vradio 15 1 0 2 empty empty empty 0 -8 0 10 -262144
-1 -1 0;
#X obj 83 178 gemhead;
#X obj 214 449 separator;
#X obj 215 519 translateXYZ;
#X obj 215 484 pix_texture;
#X obj 216 559 rectangle 4 3;
#X floatatom 312 441 5 0 0 0 - - -;
#X floatatom 310 411 5 0 0 0 - - -;
#X floatatom 309 376 5 0 0 0 - - -;
#X obj 61 512 translateXYZ;
#X obj 60 452 separator;
#X floatatom 162 462 5 0 0 0 - - -;
#X floatatom 160 487 5 0 0 0 - - -;
#X floatatom 164 514 5 0 0 0 - - -;
#X obj 157 236 pix_delay 400;
#X obj 251 195 line;
#X obj 251 166 pack i 1000;
#X floatatom 252 220 5 0 0 0 - - -;
#X floatatom 314 128 5 0 0 0 - - -;
#X connect 0 0 18 0;
#X connect 1 0 2 0;
#X connect 1 0 3 0;
#X connect 2 0 1 1;
#X connect 4 0 17 0;
#X connect 6 0 5 0;
#X connect 7 0 5 0;
#X connect 8 0 5 0;
#X connect 9 0 37 0;
#X connect 11 0 16 1;
#X connect 12 0 0 1;
#X connect 13 0 18 1;
#X connect 13 0 27 0;
#X connect 14 0 13 0;
#X connect 15 0 21 1;
#X connect 16 0 12 0;
#X connect 16 0 44 0;
#X connect 17 0 15 0;
#X connect 18 0 38 0;
#X connect 19 0 17 1;
#X connect 19 0 16 1;
#X connect 20 0 17 1;
#X connect 21 0 25 0;
#X connect 22 0 23 0;
#X connect 23 0 21 0;
#X connect 24 0 23 1;
#X connect 25 0 16 0;
#X connect 26 0 25 1;
#X connect 27 0 0 0;
#X connect 27 0 42 0;
#X connect 28 0 27 2;
#X connect 29 0 27 1;
#X connect 30 0 32 0;
#X connect 31 0 33 0;
#X connect 32 0 31 0;
#X connect 34 0 31 3;
#X connect 35 0 31 2;
#X connect 36 0 31 1;
#X connect 37 0 10 0;
#X connect 38 0 9 0;
#X connect 39 0 37 1;
#X connect 40 0 37 2;
#X connect 41 0 37 3;
#X connect 42 0 30 0;
#X connect 43 0 45 0;
#X connect 44 0 43 0;
#X connect 45 0 42 1;
#X connect 46 0 44 1;
