#N canvas 687 22 635 852 10;
#X obj 55 -39 pd_video;
#X obj 58 307 pd_buffer_write test 300;
#X obj 256 477 gemwin;
#X msg 256 406 create;
#X msg 256 381 destroy;
#X obj -20 585 pd_buffer_read test;
#X obj -17 845 rectangle 4 3;
#X obj 256 456 tgl 15 0 empty empty empty 17 7 0 10 -262144 -1 -1 1
1;
#X obj 198 248 bng 15 250 50 0 empty empty empty 17 7 0 10 -262144
-1 -1;
#X obj 91 437 random;
#X obj 91 414 metro 29;
#X obj 91 393 tgl 15 0 empty empty empty 17 7 0 10 -262144 -1 -1 1
1;
#X floatatom 136 395 5 0 0 0 - - -;
#X obj 86 111 pix_video;
#X obj 144 154 hradio 15 1 0 3 empty empty empty 0 -8 0 10 -262144
-1 -1 2;
#X obj 57 211 multiplex 1 2 3;
#X obj 86 90 gemhead;
#X obj 115 131 gemhead;
#X obj 120 466 pack f f;
#X obj 120 493 line;
#X floatatom 165 419 5 0 0 0 - - -;
#X obj 202 533 hradio 15 1 0 5 empty empty empty 0 -8 0 10 -262144
-1 -1 1;
#X floatatom 124 378 5 0 0 0 - - -;
#X obj 57 236 t a b;
#X obj 153 259 mod;
#X floatatom 153 281 5 0 0 0 - - -;
#X obj 84 262 i;
#X obj 115 262 + 1;
#X floatatom 149 515 5 0 0 0 - - -;
#X floatatom 120 529 5 0 0 0 - - -;
#X obj 91 561 multiplex 1 2 3 4 5;
#X floatatom 200 498 5 0 0 0 - - -;
#X msg 179 458 8;
#X msg 140 90 dialog;
#X obj 296 201 loadbang;
#X msg 227 300 300;
#X msg 261 300 550;
#X msg 297 300 1050;
#X msg 382 302 222;
#X msg 340 301 8;
#X obj 197 205 loadbang;
#X obj -18 776 pix_texture;
#X msg 256 432 dimen 800 600;
#X obj -17 822 translateXYZ;
#X floatatom 51 801 5 0 0 0 - - -;
#X obj -20 608 pix_separator;
#X obj -20 676 pix_gain;
#X floatatom 2 653 5 0 0 0 - - -;
#X obj -19 754 pix_motionblur;
#X floatatom 62 728 5 0 0 0 - - -;
#X obj -125 2 cnv 15 100 60 empty empty Videosampler 20 12 0 14 -262144
-66577 0;
#X obj -20 727 pix_contrast;
#X floatatom 14 705 5 0 0 0 - - -;
#X obj -20 631 pix_grey;
#X obj 144 178 t a b;
#X msg 171 217 0;
#X obj 199 154 hradio 15 1 0 3 empty empty empty 0 -8 0 10 -262144
-1 -1 0;
#X obj 163 702 dac~;
#X obj 194 593 *;
#X floatatom 234 579 5 0 0 0 - - -;
#X obj 195 629 osc~;
#X obj 109 634 phasor~;
#X obj 170 653 *~;
#X obj 203 55 key;
#X obj 203 79 select 113 119;
#X obj 226 183 print;
#X msg 203 103 1;
#X msg 243 103 2;
#X connect 0 0 15 0;
#X connect 1 1 22 0;
#X connect 1 1 24 1;
#X connect 3 0 2 0;
#X connect 4 0 2 0;
#X connect 5 0 45 0;
#X connect 7 0 2 0;
#X connect 8 0 1 1;
#X connect 9 0 18 0;
#X connect 9 0 30 0;
#X connect 9 0 58 0;
#X connect 9 0 61 0;
#X connect 10 0 9 0;
#X connect 11 0 10 0;
#X connect 12 0 10 1;
#X connect 13 0 15 1;
#X connect 14 0 54 0;
#X connect 14 0 65 0;
#X connect 15 0 23 0;
#X connect 16 0 13 0;
#X connect 17 0 15 2;
#X connect 18 0 19 0;
#X connect 19 0 29 0;
#X connect 20 0 18 1;
#X connect 21 0 30 5;
#X connect 22 0 9 1;
#X connect 23 0 1 0;
#X connect 23 1 26 0;
#X connect 24 0 25 0;
#X connect 25 0 30 3;
#X connect 26 0 27 0;
#X connect 26 0 24 0;
#X connect 27 0 26 1;
#X connect 28 0 30 2;
#X connect 29 0 30 1;
#X connect 30 0 5 1;
#X connect 31 0 30 4;
#X connect 32 0 30 4;
#X connect 33 0 13 0;
#X connect 34 0 35 0;
#X connect 34 0 36 0;
#X connect 34 0 37 0;
#X connect 34 0 38 0;
#X connect 34 0 39 0;
#X connect 35 0 22 0;
#X connect 36 0 12 0;
#X connect 37 0 20 0;
#X connect 38 0 31 0;
#X connect 39 0 32 0;
#X connect 40 0 8 0;
#X connect 41 0 43 0;
#X connect 42 0 2 0;
#X connect 43 0 6 0;
#X connect 44 0 43 3;
#X connect 45 0 53 0;
#X connect 46 0 51 0;
#X connect 47 0 46 1;
#X connect 48 0 41 0;
#X connect 49 0 48 1;
#X connect 51 0 48 0;
#X connect 52 0 51 1;
#X connect 53 0 46 0;
#X connect 54 0 15 3;
#X connect 54 1 55 0;
#X connect 55 0 25 0;
#X connect 55 0 26 1;
#X connect 56 0 15 3;
#X connect 58 0 60 0;
#X connect 59 0 58 1;
#X connect 60 0 62 1;
#X connect 61 0 62 0;
#X connect 62 0 57 0;
#X connect 62 0 57 1;
#X connect 63 0 64 0;
#X connect 64 0 66 0;
#X connect 64 1 67 0;
#X connect 66 0 14 0;
#X connect 67 0 14 0;
