#N canvas 0 22 450 300 10;
#N canvas 137 139 320 476 audio 0;
#X obj 186 90 hip~ 5;
#X obj 194 141 int;
#X obj 194 115 env~ 8192;
#X obj 186 37 adc~ 1;
#X obj 196 190 r~ tone-mon;
#X obj 205 325 line~;
#X obj 186 215 *~;
#X obj 205 298 pack 0 50;
#X obj 205 272 r tone-ch1;
#X obj 196 245 r~ tone-osc;
#X obj 196 350 *~;
#X obj 186 405 dac~ 1;
#X obj 186 380 +~;
#X obj 194 63 r tone-hip;
#X obj 25 282 s~ tone-mon;
#X obj 25 256 line~;
#X obj 25 228 pack 0 50;
#X obj 25 202 r tone-monitor;
#X obj 28 119 * 5;
#X obj 28 144 s tone-hip;
#X obj 28 93 r tone-hipass;
#N canvas 144 229 223 149 glue+loadbang 0;
#X obj 8 14 r tone-all;
#X obj 118 12 r tone-none;
#X msg 8 42 \; tone-ch1 1 \; tone-ch2 1 \; tone-ch3 1 \; tone-ch4 1
;
#X msg 118 42 \; tone-ch1 0 \; tone-ch2 0 \; tone-ch3 0 \; tone-ch4
0;
#X connect 0 0 2 0;
#X connect 1 0 3 0;
#X restore 22 311 pd glue+loadbang;
#X msg 23 390 \; pd dsp 1;
#X msg 85 390 \; pd dsp 0;
#X obj 23 360 route dsp;
#X obj 23 339 tgl 15 0 empty empty empty 0 -6 0 10 -262144 -1 -1 0
1;
#X obj 10 8 cnv 15 160 20 empty empty audio_control 8 8 0 12 -1 -262144
0;
#X obj 127 193 nbx 3 14 0 100 0 0 signalaudio01 audio01 audio 0 -6
0 9 -1 -4034 -1 55 10;
#X obj 127 210 spigot;
#X obj 127 229 s audio;
#X obj 127 162 inlet;
#X floatatom 240 167 3 0 0 0 - - audio01;
#N canvas 487 35 512 603 tone-generator 0;
#X obj 22 134 osc~;
#X obj 22 66 mtof;
#X floatatom 22 43 0 0 0 0 - - -;
#X floatatom 22 88 0 0 0 0 - - -;
#X obj 22 110 sig~;
#X obj 22 18 r tone-pitch;
#X obj 119 60 noise~;
#X obj 65 196 +~;
#X obj 282 87 - 1;
#X obj 282 119 * -1;
#X obj 191 175 line~;
#X obj 281 176 line~;
#X obj 22 158 *~;
#X obj 119 157 *~;
#X msg 191 146 \$1 20;
#X msg 281 147 \$1 20;
#X floatatom 239 54 0 0 0 0 - - -;
#X obj 64 451 *~;
#X obj 86 424 line~;
#X obj 86 397 pack 0 50;
#X floatatom 86 345 0 0 0 0 - - -;
#X obj 86 370 dbtorms;
#X obj 64 477 s~ tone-osc;
#X obj 86 262 r tone-radio;
#X obj 86 290 sel 0 1 2;
#X msg 155 313 0;
#X msg 86 315 80;
#X msg 119 315 60;
#X obj 239 31 r tone-type;
#X connect 0 0 12 0;
#X connect 1 0 3 0;
#X connect 2 0 1 0;
#X connect 3 0 4 0;
#X connect 4 0 0 0;
#X connect 5 0 2 0;
#X connect 6 0 13 0;
#X connect 7 0 17 0;
#X connect 8 0 9 0;
#X connect 9 0 15 0;
#X connect 10 0 12 1;
#X connect 11 0 13 1;
#X connect 12 0 7 0;
#X connect 13 0 7 1;
#X connect 14 0 10 0;
#X connect 15 0 11 0;
#X connect 16 0 8 0;
#X connect 16 0 14 0;
#X connect 17 0 22 0;
#X connect 18 0 17 1;
#X connect 19 0 18 0;
#X connect 20 0 21 0;
#X connect 21 0 19 0;
#X connect 23 0 24 0;
#X connect 24 0 26 0;
#X connect 24 1 27 0;
#X connect 24 2 25 0;
#X connect 25 0 20 0;
#X connect 26 0 20 0;
#X connect 27 0 20 0;
#X connect 28 0 16 0;
#X restore 24 47 pd tone-generator;
#X connect 0 0 6 0;
#X connect 0 0 2 0;
#X connect 1 0 31 0;
#X connect 2 0 1 0;
#X connect 3 0 0 0;
#X connect 4 0 6 1;
#X connect 5 0 10 1;
#X connect 6 0 12 0;
#X connect 7 0 5 0;
#X connect 8 0 7 0;
#X connect 9 0 10 0;
#X connect 10 0 12 1;
#X connect 12 0 11 0;
#X connect 13 0 0 1;
#X connect 15 0 14 0;
#X connect 16 0 15 0;
#X connect 17 0 16 0;
#X connect 18 0 19 0;
#X connect 20 0 18 0;
#X connect 24 0 22 0;
#X connect 24 1 23 0;
#X connect 25 0 24 0;
#X connect 27 0 28 0;
#X connect 28 0 29 0;
#X connect 30 0 28 1;
#X restore 351 233 pd audio;
#X obj 351 217 tgl 15 0 empty audiospigot empty 0 -6 0 10 -1 -4034
-1 0 1;
#X obj 291 28 r audio;
#X obj 332 48 nbx 3 14 0.1 100 0 0 empty headspeed empty 0 -6 0 9 -1
-4034 -1 0.1 10;
#X obj 291 45 spigot;
#X obj 337 30 tgl 15 0 empty empty empty 0 -6 0 10 -1 -4034 -1 0 1
;
#X floatatom 291 62 5 0 0 0 - - -;
#X connect 1 0 0 0;
#X connect 2 0 4 0;
#X connect 4 0 6 0;
#X connect 5 0 4 1;
