#N canvas 406 437 450 300 10;
#X obj 142 107 pix_buffer_read \$1;
#X obj 142 137 outlet;
#X obj 142 39 gemhead;
#X obj 247 39 inlet;
#X obj 199 39 inlet;
#X msg 199 73 set \$1;
#X connect 0 0 1 0;
#X connect 2 0 0 0;
#X connect 3 0 0 1;
#X connect 4 0 5 0;
#X connect 5 0 0 0;
