#N canvas -1 25 1025 530 10;
#N canvas 117 0 561 386 blending 0;
#X obj 28 65 inlet;
#X obj 191 354 outlet;
#X obj 173 285 inlet;
#X obj 320 8 inlet;
#X obj 28 322 pix_composite;
#X obj 129 323 pix_add;
#X obj 285 322 pix_diff;
#X obj 191 322 pix_subtract;
#X obj 28 227 pix_alpha;
#N canvas 445 182 508 174 select 0;
#X obj 88 35 inlet;
#X msg 88 98 1;
#X msg 144 98 2;
#X msg 201 97 3;
#X msg 257 97 0;
#X obj 88 121 outlet;
#X msg 329 100 4;
#X obj 88 59 select pix_add pix_subtract pix_diff pix_composite pix_multiply
;
#X connect 0 0 7 0;
#X connect 1 0 5 0;
#X connect 2 0 5 0;
#X connect 3 0 5 0;
#X connect 4 0 5 0;
#X connect 6 0 5 0;
#X connect 7 0 1 0;
#X connect 7 1 2 0;
#X connect 7 2 3 0;
#X connect 7 3 4 0;
#X connect 7 4 6 0;
#X restore 350 82 pd select blending method;
#X obj 360 324 pix_multiply;
#N canvas 172 276 450 300 demux5 0;
#X obj 59 30 inlet;
#X obj 283 17 inlet;
#X obj 59 193 outlet;
#X obj 59 137 spigot;
#X obj 96 109 == 0;
#X obj 106 137 spigot;
#X obj 153 139 spigot;
#X obj 200 137 spigot;
#X obj 246 137 spigot;
#X obj 143 109 == 1;
#X obj 190 109 == 2;
#X obj 237 109 == 3;
#X obj 283 109 == 4;
#X obj 96 83 loadbang;
#X obj 59 52 t a a a a a;
#X obj 106 194 outlet;
#X obj 153 195 outlet;
#X obj 200 196 outlet;
#X obj 246 195 outlet;
#X obj 283 61 f;
#X connect 0 0 14 0;
#X connect 1 0 19 0;
#X connect 3 0 2 0;
#X connect 4 0 3 1;
#X connect 5 0 15 0;
#X connect 6 0 16 0;
#X connect 7 0 17 0;
#X connect 8 0 18 0;
#X connect 9 0 5 1;
#X connect 10 0 6 1;
#X connect 11 0 7 1;
#X connect 12 0 8 1;
#X connect 13 0 4 0;
#X connect 14 0 3 0;
#X connect 14 1 5 0;
#X connect 14 2 6 0;
#X connect 14 3 7 0;
#X connect 14 4 8 0;
#X connect 19 0 4 0;
#X connect 19 0 9 0;
#X connect 19 0 10 0;
#X connect 19 0 11 0;
#X connect 19 0 12 0;
#X restore 28 189 pd demux5;
#X obj 320 28 t b a;
#X obj 28 129 pix_buf;
#X text 26 39 pix1;
#X text 176 269 pix2;
#X obj 350 56 symbol;
#X text 99 232 we need an alpha componenct for 'composite';
#X text 85 115 [pix_add] and friends will overwrite the original (left)
image with the blend. [pix_buf] holds a local copy of the original
image and will refresh the output when banged.;
#X connect 0 0 13 0;
#X connect 2 0 5 1;
#X connect 2 0 4 1;
#X connect 2 0 7 1;
#X connect 2 0 6 1;
#X connect 2 0 10 1;
#X connect 3 0 12 0;
#X connect 4 0 1 0;
#X connect 5 0 1 0;
#X connect 6 0 1 0;
#X connect 7 0 1 0;
#X connect 8 0 4 0;
#X connect 9 0 11 1;
#X connect 10 0 1 0;
#X connect 11 0 8 0;
#X connect 11 1 5 0;
#X connect 11 2 7 0;
#X connect 11 3 6 0;
#X connect 11 4 10 0;
#X connect 12 0 13 0;
#X connect 12 1 16 0;
#X connect 13 0 11 0;
#X connect 16 0 9 0;
#X restore -90 145 pd blending;
#X msg 6 207 pix_multiply;
#X msg 7 182 pix_diff;
#X msg 5 158 pix_subtract;
#X msg 5 133 pix_add;
#X msg 8 111 pix_composite;
#X obj -66 12 inlet;
#X obj 85 12 inlet;
#X obj -29 337 outlet;
#X text 109 108 Blending mode;
#X obj 110 134 bng 15 250 50 0 empty empty Composite 17 7 0 10 -262144
-1 -1;
#X obj 110 154 bng 15 250 50 0 empty empty Add 17 7 0 10 -262144 -1
-1;
#X obj 110 174 bng 15 250 50 0 empty empty Subtract 17 7 0 10 -262144
-1 -1;
#X obj 110 194 bng 15 250 50 0 empty empty Diff 17 7 0 10 -262144 -1
-1;
#X obj 110 214 bng 15 250 50 0 empty empty Multiply 17 7 0 10 -262144
-1 -1;
#X obj 110 234 tgl 15 0 empty empty ON/BYPASS 17 7 0 10 -262144 -1
-1 0 1;
#X obj -87 57 demultiplex 1 2;
#X obj 54 57 demultiplex 1 2;
#X obj -53 279 multiplex 1 2;
#X connect 0 0 18 1;
#X connect 1 0 0 2;
#X connect 2 0 0 2;
#X connect 3 0 0 2;
#X connect 4 0 0 2;
#X connect 5 0 0 2;
#X connect 6 0 16 0;
#X connect 7 0 17 0;
#X connect 10 0 5 0;
#X connect 11 0 4 0;
#X connect 12 0 3 0;
#X connect 13 0 2 0;
#X connect 14 0 1 0;
#X connect 15 0 16 1;
#X connect 15 0 17 1;
#X connect 15 0 18 2;
#X connect 16 0 18 0;
#X connect 16 1 0 0;
#X connect 17 1 0 1;
#X connect 18 0 8 0;
#X coords 0 -1 1 1 100 170 2 100 100;
