#N canvas 0 45 1024 530 10;
#X obj 381 228 timer;
#X obj 400 325 -;
#X obj 383 255 t f b f;
#X obj 400 348 abs;
#X obj 425 396 +;
#X msg 340 299 0;
#X obj 331 181 bng 15 250 50 0 empty empty empty 17 7 0 10 -262144
-1 -1;
#X obj 345 396 + 1;
#X obj 347 348 t b b f;
#X obj 362 470 /;
#X floatatom 281 427 5 0 0 0 - - -;
#X obj 321 227 t b b b;
#X obj 398 427 t f f;
#X obj 387 299 f;
#X obj 381 396 f;
#X obj 302 394 f;
#X obj 467 225 timer;
#X obj 450 309 select 1;
#X obj 344 117 f;
#X msg 380 118 1;
#X obj 107 134 bng 80 250 50 0 empty empty TAP 34 7 0 10 -258113 -262144
-262144;
#X obj 344 148 select 1;
#X obj 387 201 bng 15 250 50 0 empty empty empty 17 7 0 10 -262144
-1 -1;
#X msg 379 92 0;
#X text 439 427 AKUMULASI;
#X text 330 468 RATE;
#X text 242 426 COUNT;
#X obj 465 122 t b;
#X obj 354 26 t b b;
#X obj 467 277 > 5000;
#X floatatom 450 357 5 0 0 0 - - -;
#X msg 287 300 0;
#X floatatom 191 134 12 0 0 0 - - -;
#X obj 452 56 moses 0;
#X obj 424 29 expr 60000/$f1;
#X obj 111 106 cnv 15 150 18 empty empty BPM_CALCULATOR 10 12 0 14
-262144 -66577 0;
#X obj 102 291 outlet;
#X obj 155 292 outlet;
#X obj -49 313 metro;
#X obj 191 183 bng 30 250 50 0 empty empty SAMPLE 34 7 0 10 -258113
-262144 -33289;
#X obj -49 285 tgl 15 0 empty empty empty 17 7 0 10 -262144 -1 -1 1
1;
#X obj -23 168 loadbang;
#X connect 0 0 2 0;
#X connect 1 0 3 0;
#X connect 2 0 13 1;
#X connect 2 1 13 0;
#X connect 2 2 1 1;
#X connect 3 0 8 0;
#X connect 3 0 30 0;
#X connect 4 0 12 0;
#X connect 4 0 14 1;
#X connect 5 0 14 1;
#X connect 5 0 4 1;
#X connect 5 0 13 1;
#X connect 6 0 11 0;
#X connect 6 0 16 0;
#X connect 7 0 15 1;
#X connect 8 0 14 0;
#X connect 8 1 15 0;
#X connect 8 2 4 1;
#X connect 9 0 27 0;
#X connect 9 0 33 0;
#X connect 9 0 36 0;
#X connect 9 0 38 1;
#X connect 11 0 31 0;
#X connect 11 1 5 0;
#X connect 11 2 0 0;
#X connect 12 0 9 0;
#X connect 13 0 1 0;
#X connect 14 0 4 0;
#X connect 15 0 7 0;
#X connect 15 0 10 0;
#X connect 15 0 9 1;
#X connect 16 0 29 0;
#X connect 17 0 6 0;
#X connect 18 0 19 0;
#X connect 18 0 21 0;
#X connect 19 0 18 1;
#X connect 20 0 28 0;
#X connect 21 0 22 0;
#X connect 21 1 6 0;
#X connect 22 0 0 1;
#X connect 23 0 18 1;
#X connect 27 0 16 0;
#X connect 28 0 18 0;
#X connect 28 1 16 1;
#X connect 29 0 17 0;
#X connect 31 0 15 1;
#X connect 33 1 34 0;
#X connect 34 0 32 0;
#X connect 34 0 37 0;
#X connect 38 0 39 0;
#X connect 40 0 38 0;
#X connect 41 0 40 0;
#X coords 0 -1 1 1 170 120 2 100 100;
