#N canvas 435 155 471 504 10;
#X obj 169 42 inlet;
#X obj 169 75 t a b;
#X obj 298 171 i;
#X obj 324 172 + 1;
#X obj 284 -38 loadbang;
#X obj 169 326 outlet;
#X obj 313 106 float \$2;
#X obj 298 251 mod;
#X floatatom 313 133 5 0 0 0 - - -;
#X obj 284 -7 t b b;
#X obj 169 283 pix_buffer_write \$1 \$2;
#X obj 228 54 pix_buffer \$1 \$2;
#X obj 228 29 inlet;
#X obj 228 78 outlet;
#X connect 0 0 1 0;
#X connect 1 0 10 0;
#X connect 1 1 2 0;
#X connect 2 0 3 0;
#X connect 2 0 7 0;
#X connect 3 0 2 1;
#X connect 4 0 9 0;
#X connect 6 0 8 0;
#X connect 7 0 10 1;
#X connect 8 0 7 1;
#X connect 9 0 11 0;
#X connect 9 1 6 0;
#X connect 10 0 5 0;
#X connect 11 0 13 0;
#X connect 12 0 11 0;
