#N canvas 438 118 1024 530 10;
#X msg 121 155 0;
#X msg 151 158 1;
#X msg 190 161 2;
#X msg 217 163 3;
#X obj 29 43 inlet;
#X obj 52 297 outlet;
#X obj 111 109 tgl 15 0 empty empty 1 17 7 0 10 -262144 -1 -1 0 1;
#X obj 141 109 tgl 15 0 empty empty 2 17 7 0 10 -262144 -1 -1 0 1;
#X obj 171 109 tgl 15 0 empty empty 3 17 7 0 10 -262144 -1 -1 0 1;
#X obj 201 109 tgl 15 0 empty empty 4 17 7 0 10 -262144 -1 -1 0 1;
#X obj 263 -10 select 1;
#X obj 57 -17 select 1;
#X obj 117 -14 select 1;
#X obj 185 -13 select 1;
#X msg 110 33 0;
#X msg 145 34 0;
#X msg 181 35 0;
#X msg 220 34 0;
#X obj 58 267 demultiplex 1 2 3 4;
#X obj 62 307 outlet;
#X obj 72 317 outlet;
#X obj 82 327 outlet;
#X connect 0 0 18 1;
#X connect 1 0 18 1;
#X connect 2 0 18 1;
#X connect 3 0 18 1;
#X connect 4 0 18 0;
#X connect 6 0 11 0;
#X connect 7 0 12 0;
#X connect 8 0 13 0;
#X connect 9 0 10 0;
#X connect 10 0 3 0;
#X connect 10 0 17 0;
#X connect 11 0 0 0;
#X connect 11 0 14 0;
#X connect 12 0 1 0;
#X connect 12 0 15 0;
#X connect 13 0 2 0;
#X connect 13 0 16 0;
#X connect 14 0 7 0;
#X connect 14 0 8 0;
#X connect 14 0 9 0;
#X connect 15 0 6 0;
#X connect 15 0 8 0;
#X connect 15 0 9 0;
#X connect 16 0 6 0;
#X connect 16 0 7 0;
#X connect 16 0 9 0;
#X connect 17 0 8 0;
#X connect 17 0 7 0;
#X connect 17 0 6 0;
#X connect 18 0 5 0;
#X connect 18 1 19 0;
#X connect 18 2 20 0;
#X connect 18 3 21 0;
#X coords 0 -1 1 1 130 30 2 100 100;
