#N canvas 13 46 1011 530 10;
#X obj 291 327 pix_mix;
#X obj 110 118 hsl 128 15 0 1 0 0 empty empty MIX -2 -8 0 10 -1 -258113
-1 0 1;
#X floatatom 246 117 5 0 0 0 - - -;
#X obj 89 238 inlet;
#X obj 199 236 inlet;
#X obj 242 527 outlet;
#X obj 283 118 tgl 15 0 empty empty ON/PASS 17 7 0 10 -262144 -1 -1
1 1;
#X obj 50 19 loadbang;
#X msg 89 53 0.5;
#X obj 90 276 demultiplex 1 2;
#X obj 279 489 multiplex 1 2;
#X obj 198 278 demultiplex 1 2;
#X obj 152 434 multiplex 1 2;
#X msg 395 351 1;
#X msg 436 355 0;
#X obj 399 314 route 1 0;
#X obj 108 139 bng 15 250 50 0 empty empty A 17 7 0 10 -262144 -1 -1
;
#X obj 149 139 bng 15 250 50 0 empty empty B 17 7 0 10 -262144 -1 -1
;
#X msg 53 186 0;
#X floatatom 210 139 5 0 0 0 Trans - -;
#X msg 165 51 500;
#X obj 183 211 line;
#X msg 122 173 1;
#X msg 229 42 1;
#X obj 99 205 pack \$1 \$2;
#X connect 0 0 10 1;
#X connect 1 0 2 0;
#X connect 2 0 0 2;
#X connect 2 0 15 0;
#X connect 3 0 9 0;
#X connect 4 0 11 0;
#X connect 6 0 10 2;
#X connect 6 0 11 1;
#X connect 6 0 9 1;
#X connect 7 0 8 0;
#X connect 7 0 20 0;
#X connect 7 0 23 0;
#X connect 8 0 1 0;
#X connect 9 0 12 0;
#X connect 9 1 0 0;
#X connect 10 0 5 0;
#X connect 11 0 12 1;
#X connect 11 1 0 1;
#X connect 12 0 5 0;
#X connect 13 0 12 2;
#X connect 14 0 12 2;
#X connect 15 0 13 0;
#X connect 15 1 14 0;
#X connect 16 0 18 0;
#X connect 17 0 22 0;
#X connect 18 0 24 0;
#X connect 19 0 24 1;
#X connect 20 0 19 0;
#X connect 21 0 1 0;
#X connect 22 0 24 0;
#X connect 23 0 6 0;
#X connect 24 0 21 0;
#X coords 0 -1 1 1 250 60 2 100 100;
