#N canvas 197 58 1024 530 10;
#X obj 33 161 metro;
#X floatatom 203 111 5 0 0 0 RATE - -;
#X obj 113 111 tgl 15 0 empty empty ON/OFF 17 7 0 10 -262144 -1 -1
1 1;
#X obj 107 281 f;
#X obj 165 282 +;
#X floatatom 248 112 5 0 0 0 + - -;
#X obj 206 356 outlet;
#X floatatom 94 310 5 0 0 0 - - -;
#X floatatom 306 112 5 0 0 0 RST - -;
#X obj 99 20 loadbang;
#X msg 102 58 30;
#X msg 129 59 30;
#X msg 167 62 1;
#X msg 57 61 0;
#X obj 123 338 mod;
#X obj 113 134 tgl 15 0 empty empty Bypass 17 7 0 10 -262144 -1 -1
0 1;
#X obj 207 328 mux 1 2;
#X floatatom 306 136 5 0 0 0 MUL - -;
#X msg 752 174;
#X obj 276 271 inlet;
#X connect 0 0 3 0;
#X connect 1 0 0 1;
#X connect 2 0 0 0;
#X connect 3 0 4 0;
#X connect 3 0 7 0;
#X connect 4 0 3 1;
#X connect 5 0 4 1;
#X connect 7 0 14 0;
#X connect 8 0 14 1;
#X connect 9 0 10 0;
#X connect 9 0 11 0;
#X connect 9 0 12 0;
#X connect 9 0 13 0;
#X connect 10 0 8 0;
#X connect 11 0 1 0;
#X connect 12 0 5 0;
#X connect 13 0 2 0;
#X connect 14 0 16 0;
#X connect 15 0 16 2;
#X connect 16 0 6 0;
#X connect 19 0 16 1;
#X coords 0 -1 1 1 250 60 2 100 100;
