#N canvas 127 45 486 422 10;
#X obj 113 317 pix_texture;
#X obj 42 426 rectangle 4 3;
#X obj 112 288 inlet;
#X obj 116 146 bng 15 250 50 0 empty empty Sphere 17 7 0 10 -262144
-1 -1;
#X obj 116 166 bng 15 250 50 0 empty empty Square 17 7 0 10 -262144
-1 -1;
#X obj 116 186 bng 15 250 50 0 empty empty Cube 17 7 0 10 -262144 -1
-1;
#X obj 116 126 bng 15 250 50 0 empty empty Rectangle 17 7 0 10 -262144
-1 -1;
#X obj 123 361 demultiplex 1 2 3 4;
#X obj 114 -28 loadbang;
#X obj 136 431 sphere;
#X floatatom 212 126 5 0 0 0 W - -;
#X floatatom 260 126 5 0 0 0 H - -;
#X floatatom 212 146 5 0 0 0 S - -;
#X floatatom 260 146 5 0 0 0 SG - -;
#X msg 138 63 4;
#X msg 180 63 3;
#X msg 225 63 2;
#X msg 267 63 20;
#X obj 223 429 square;
#X floatatom 212 166 5 0 0 0 S - -;
#X msg 303 63 3;
#X obj 289 423 cube;
#X floatatom 212 186 5 0 0 0 S - -;
#X msg 336 63 3;
#X obj 114 1 t b b;
#X msg 27 198 0;
#X msg 30 223 1;
#X msg 31 247 2;
#X msg 28 272 3;
#X connect 0 0 7 0;
#X connect 2 0 0 0;
#X connect 3 0 26 0;
#X connect 4 0 27 0;
#X connect 5 0 28 0;
#X connect 6 0 25 0;
#X connect 7 0 1 0;
#X connect 7 1 9 0;
#X connect 7 2 18 0;
#X connect 7 3 21 0;
#X connect 8 0 24 0;
#X connect 10 0 1 1;
#X connect 11 0 1 2;
#X connect 12 0 9 1;
#X connect 13 0 9 2;
#X connect 14 0 10 0;
#X connect 15 0 11 0;
#X connect 16 0 12 0;
#X connect 17 0 13 0;
#X connect 19 0 18 1;
#X connect 20 0 19 0;
#X connect 22 0 21 1;
#X connect 23 0 22 0;
#X connect 24 0 6 0;
#X connect 24 1 14 0;
#X connect 24 1 15 0;
#X connect 24 1 16 0;
#X connect 24 1 17 0;
#X connect 24 1 20 0;
#X connect 24 1 23 0;
#X connect 25 0 7 1;
#X connect 26 0 7 1;
#X connect 27 0 7 1;
#X connect 28 0 7 1;
#X coords 0 -1 1 1 200 120 1 100 100;
