#N canvas 0 0 450 300 10;
#X obj 152 187 metro;
#X obj 229 178 random;
#X obj 111 110 tgl 15 0 empty empty ON 17 7 0 10 -262144 -1 -1 1 1
;
#X floatatom 180 134 5 0 0 0 OUT - -;
#X floatatom 181 109 5 0 0 0 RATE - -;
#X obj 110 14 loadbang;
#X msg 275 54 500;
#X msg 161 49 0;
#X obj 235 214 outlet;
#X obj 369 86;
#X floatatom 125 133 5 0 0 0 RNG - -;
#X msg 73 49 200;
#X connect 0 0 1 0;
#X connect 1 0 3 0;
#X connect 1 0 8 0;
#X connect 2 0 0 0;
#X connect 4 0 0 1;
#X connect 5 0 7 0;
#X connect 5 0 6 0;
#X connect 5 0 11 0;
#X connect 6 0 4 0;
#X connect 7 0 2 0;
#X connect 10 0 1 1;
#X connect 11 0 10 0;
#X coords 0 -1 1 1 120 60 2 100 100;
