#N canvas 0 46 1024 530 10;
#X obj 33 161 metro;
#X floatatom 203 111 5 0 0 0 RATE - -;
#X obj 113 111 tgl 15 0 empty empty ON/OFF 17 7 0 10 -262144 -1 -1
1 1;
#X obj 107 281 f;
#X obj 165 282 +;
#X floatatom 248 112 5 0 0 0 + - -;
#X obj 230 411 outlet;
#X floatatom 94 310 5 0 0 0 - - -;
#X floatatom 306 112 5 0 0 0 RST - -;
#X obj 99 20 loadbang;
#X msg 102 58 30;
#X msg 129 59 30;
#X msg 167 62 1;
#X msg 57 61 0;
#X obj 123 338 mod;
#X obj 113 134 tgl 15 0 empty empty Bypass 17 7 0 10 -262144 -1 -1
0 1;
#X obj 195 296 inlet;
#X obj 207 328 mux 1 2;
#X obj 179 135 bng 15 250 50 0 empty empty ZER 17 7 0 10 -262144 -1
-1;
#X msg 344 321 0;
#X floatatom 482 41 0 0 0 0 - - -;
#X obj 482 81 * 6.28319;
#X obj 482 61 / 360;
#X floatatom 482 101 0 0 0 0 - - -;
#X obj 436 204 sin;
#X msg 530 285;
#X obj 402 284 *;
#X floatatom 306 136 5 0 0 0 MUL - -;
#X floatatom 405 322 5 0 0 0 - - -;
#X obj 452 172 demultiplex 1 2 3 4;
#X obj 479 204 cos;
#X obj 523 202 tan;
#X obj 447 246 multiplex 1 2 3 4;
#X msg 752 174;
#X obj 113 157 bng 15 250 50 0 empty empty SIN 17 7 0 10 -262144 -1
-1;
#X obj 180 158 bng 15 250 50 0 empty empty COS 17 7 0 10 -262144 -1
-1;
#X obj 232 159 bng 15 250 50 0 empty empty TAN 17 7 0 10 -262144 -1
-1;
#X msg 111 186 0;
#X msg 183 214 1;
#X msg 268 246 2;
#X msg 310 274 3;
#X floatatom 307 158 5 0 0 0 OUT - -;
#X obj 224 365 +;
#X floatatom 246 134 5 0 0 0 OFS - -;
#X connect 0 0 3 0;
#X connect 1 0 0 1;
#X connect 2 0 0 0;
#X connect 3 0 4 0;
#X connect 3 0 7 0;
#X connect 4 0 3 1;
#X connect 5 0 4 1;
#X connect 7 0 14 0;
#X connect 7 0 20 0;
#X connect 8 0 14 1;
#X connect 9 0 10 0;
#X connect 9 0 11 0;
#X connect 9 0 12 0;
#X connect 9 0 13 0;
#X connect 10 0 8 0;
#X connect 11 0 1 0;
#X connect 12 0 5 0;
#X connect 13 0 2 0;
#X connect 15 0 17 2;
#X connect 16 0 17 1;
#X connect 17 0 41 0;
#X connect 17 0 42 0;
#X connect 18 0 19 0;
#X connect 19 0 6 0;
#X connect 20 0 22 0;
#X connect 21 0 23 0;
#X connect 22 0 21 0;
#X connect 23 0 29 0;
#X connect 24 0 32 0;
#X connect 26 0 17 0;
#X connect 26 0 28 0;
#X connect 27 0 26 1;
#X connect 29 0 24 0;
#X connect 29 1 30 0;
#X connect 29 2 31 0;
#X connect 30 0 32 1;
#X connect 31 0 32 2;
#X connect 32 0 26 0;
#X connect 34 0 37 0;
#X connect 35 0 38 0;
#X connect 36 0 39 0;
#X connect 37 0 32 4;
#X connect 37 0 29 1;
#X connect 38 0 32 4;
#X connect 39 0 32 4;
#X connect 39 0 29 1;
#X connect 40 0 29 1;
#X connect 40 0 32 4;
#X connect 42 0 6 0;
#X connect 43 0 42 1;
#X coords 0 -1 1 1 250 80 2 100 100;
