#N canvas 206 42 737 616 10;
#X obj -118 56 gemhead;
#X obj -118 90 spigot;
#X obj 106 138 tgl 15 0 empty global_off ON/OFF 17 7 0 10 -262144 -1
-1 0 1;
#X obj -116 225 pix_film;
#X obj 106 156 bng 15 250 50 0 empty empty OPEN 17 7 0 10 -262144 -1
-1;
#X obj 223 141 hsl 128 15 0 9000 0 0 empty empty SEEK -2 -8 0 10 -262144
-1 -1 0 1;
#X obj 166 137 tgl 15 0 empty empty AUTO 17 7 0 10 -262144 -1 -1 0
1;
#X msg -24 174 auto \$1;
#X obj -116 307 outlet;
#X obj 101 101 cnv 15 280 20 empty empty >>VIDEO_INPUT 5 12 0 12 -1
-4034 0;
#X obj 118 -118 random;
#X obj 56 -166 unpack 0 0 0;
#X obj 167 156 tgl 15 0 empty empty RND 17 7 0 10 -262144 -1 -1 0 1
;
#X obj 163 -118 metro 30;
#X obj 254 -185 i;
#X obj 285 -185 + 1;
#X obj 335 166 tgl 15 0 empty empty FRM 17 7 0 10 -262144 -1 -1 0 1
;
#X obj 254 -158 mod;
#X floatatom 300 165 5 0 0 0 FR - -;
#X obj 254 -209 metro 20;
#X floatatom 246 164 5 0 0 0 RATE - -;
#X obj 72 -32 loadbang;
#X msg 72 -9 33;
#X obj 223 293 select 1;
#X msg 224 318 0;
#X obj 313 293 select 1;
#X msg 314 317 0;
#X obj 405 282 select 1;
#X msg 406 306 0;
#X obj 109 285 t f;
#X obj 92 253 spigot;
#X obj 58 214 t b;
#X msg -71 134 1;
#X msg -48 56 0;
#X obj -61 -24 symbol;
#X obj -67 -157 openpanel;
#X obj -66 -56 bng 15 250 50 0 empty empty empty 17 7 0 10 -262144
-1 -1;
#X msg -28 -48 symbol \$1;
#X msg -62 -3 open \$1;
#X obj -67 -126 t b b a;
#X obj -66 -89 delay 100;
#X obj -94 270 t b;
#X obj -126 -112 *;
#X obj -126 -158 inlet;
#X floatatom -128 -88 5 0 0 0 - - -;
#X floatatom -126 -134 5 0 0 0 - - -;
#X connect 0 0 1 0;
#X connect 1 0 3 0;
#X connect 2 0 1 1;
#X connect 3 0 8 0;
#X connect 3 1 11 0;
#X connect 3 1 31 0;
#X connect 3 1 41 0;
#X connect 3 2 30 0;
#X connect 4 0 35 0;
#X connect 5 0 3 1;
#X connect 6 0 7 0;
#X connect 6 0 23 0;
#X connect 6 0 30 1;
#X connect 7 0 3 0;
#X connect 10 0 5 0;
#X connect 11 0 10 1;
#X connect 11 0 17 1;
#X connect 11 0 42 1;
#X connect 12 0 13 0;
#X connect 12 0 25 0;
#X connect 13 0 10 0;
#X connect 14 0 15 0;
#X connect 14 0 17 0;
#X connect 15 0 14 1;
#X connect 16 0 19 0;
#X connect 16 0 27 0;
#X connect 17 0 18 0;
#X connect 17 0 5 0;
#X connect 19 0 14 0;
#X connect 20 0 19 1;
#X connect 20 0 13 1;
#X connect 21 0 22 0;
#X connect 22 0 20 0;
#X connect 23 0 24 0;
#X connect 24 0 16 0;
#X connect 24 0 12 0;
#X connect 25 0 26 0;
#X connect 26 0 6 0;
#X connect 26 0 16 0;
#X connect 27 0 28 0;
#X connect 28 0 12 0;
#X connect 28 0 6 0;
#X connect 29 0 3 1;
#X connect 30 0 29 0;
#X connect 31 0 32 0;
#X connect 32 0 1 1;
#X connect 33 0 1 1;
#X connect 34 0 38 0;
#X connect 35 0 39 0;
#X connect 36 0 34 0;
#X connect 37 0 34 1;
#X connect 38 0 3 0;
#X connect 39 0 40 0;
#X connect 39 1 33 0;
#X connect 39 2 37 0;
#X connect 40 0 36 0;
#X connect 41 0 32 0;
#X connect 42 0 44 0;
#X connect 43 0 45 0;
#X connect 44 0 3 1;
#X connect 45 0 42 0;
#X coords 0 -1 1 1 280 90 1 100 100;
