#N canvas 687 22 635 852 10;
#X obj -72 67 pd_video;
#X obj -34 555 gemwin;
#X msg -3 490 create \, 1;
#X text 84 430 1.set ukuran;
#X msg -7 459 border 0;
#X text 56 462 2 set border = 0 tanpa title bar ganti jadi 1 pake titlebar
;
#X text 69 491 3.create video window;
#X obj -72 195 pix_texture;
#X obj -84 361 rectangle 4 3;
#X text -74 43 4 open video \, klik frm;
#X msg -18 430 dimen 640 480;
#X msg 1 520 destroy \, 0;
#X text 74 528 close window (klik 2x);
#X text 14 191 tekstur video pada rectangle;
#X obj -72 293 rotateXYZ;
#X floatatom -54 238 5 0 0 0 - - -;
#X floatatom -10 236 5 0 0 0 - - -;
#X floatatom 34 236 5 0 0 0 - - -;
#X text -7 291 rotasi objek dibawahnya [rectangle];
#X obj 7 360 sphere 2;
#X obj 90 350 cube 2;
#X connect 0 0 7 0;
#X connect 2 0 1 0;
#X connect 4 0 1 0;
#X connect 7 0 14 0;
#X connect 10 0 1 0;
#X connect 11 0 1 0;
#X connect 14 0 20 0;
#X connect 15 0 14 1;
#X connect 16 0 14 2;
#X connect 17 0 14 3;
